<?xml version="1.0" standalone="no"?>
<!DOCTYPE svg PUBLIC "-//W3C//DTD SVG 20010904//EN"
 "http://www.w3.org/TR/2001/REC-SVG-20010904/DTD/svg10.dtd">
<svg version="1.0" xmlns="http://www.w3.org/2000/svg"
 width="300.000000pt" height="300.000000pt" viewBox="0 0 300.000000 300.000000"
 preserveAspectRatio="xMidYMid meet">
<metadata>
Created by potrace 1.14, written by Peter Selinger 2001-2017
</metadata>
<g transform="translate(0.000000,300.000000) scale(0.100000,-0.100000)"
fill="#000000" stroke="none">
<path d="M1388 2426 c-46 -24 -173 -93 -283 -153 -110 -61 -258 -141 -330
-178 -142 -74 -180 -103 -201 -152 -23 -52 -17 -136 32 -446 25 -160 52 -339
60 -396 17 -121 47 -186 109 -236 22 -18 166 -99 320 -181 l280 -149 65 1 c79
1 85 4 556 228 229 109 363 179 384 199 36 35 60 83 60 121 0 13 -29 154 -65
312 -36 159 -70 310 -76 337 -7 29 -16 47 -25 47 -8 0 -14 -5 -14 -11 0 -6 23
-111 50 -233 28 -121 61 -268 74 -326 13 -58 20 -109 15 -114 -5 -6 -21 -6
-42 1 -33 10 -437 288 -489 336 -47 44 -65 98 -117 362 -29 143 -65 319 -81
391 -35 154 -36 170 -12 183 15 8 63 -22 268 -167 234 -167 251 -181 274 -230
25 -51 50 -69 50 -34 0 33 -57 109 -112 149 -187 139 -489 349 -523 364 -70
32 -133 25 -227 -25z m156 -39 c22 -12 47 -37 57 -57 10 -19 52 -203 94 -409
l75 -373 -18 -42 c-37 -82 -46 -87 -633 -362 -273 -127 -305 -137 -357 -110
-57 30 -58 33 -117 416 -74 476 -72 502 39 560 26 14 206 111 399 217 387 211
375 207 461 160z m290 -981 c42 -18 474 -320 504 -352 12 -14 22 -36 22 -49 0
-14 -9 -31 -22 -39 -37 -24 -738 -356 -798 -379 -113 -41 -123 -39 -425 122
-289 153 -335 182 -335 210 0 35 -10 29 400 221 162 75 358 169 435 208 77 39
150 71 163 71 12 1 37 -5 56 -13z"/>
<path d="M1307 2229 c-19 -11 -47 -60 -47 -84 0 -25 46 -65 76 -65 35 0 94 59
94 94 0 53 -71 85 -123 55z"/>
<path d="M817 1979 c-21 -12 -47 -61 -47 -89 0 -29 35 -60 70 -60 43 0 93 48
93 88 0 59 -63 92 -116 61z"/>
<path d="M1695 1626 c6 -52 3 -72 -13 -109 -11 -25 -32 -53 -46 -62 -31 -20
-34 -35 -7 -35 26 0 78 61 90 107 14 48 14 78 0 126 -17 61 -31 45 -24 -27z"/>
<path d="M640 1633 c0 -49 25 -180 37 -193 11 -12 13 -8 12 25 -1 66 -23 178
-37 183 -6 2 -12 -5 -12 -15z"/>
<path d="M1389 1611 c-79 -79 18 -179 100 -103 41 37 48 71 21 105 -30 38 -81
37 -121 -2z"/>
<path d="M932 1415 c-35 -30 -47 -67 -31 -98 16 -30 28 -37 66 -37 41 0 81 35
89 77 5 25 1 37 -19 57 -33 33 -67 33 -105 1z"/>
<path d="M1713 1235 c-35 -15 -53 -56 -34 -79 29 -35 129 -23 156 18 38 57
-41 96 -122 61z"/>
<path d="M1336 1179 c-66 -34 -95 -54 -88 -61 13 -13 226 87 217 102 -10 16
-25 12 -129 -41z"/>
<path d="M1418 1054 c-15 -8 -33 -24 -39 -35 -9 -18 -7 -25 10 -42 42 -43 151
-15 159 41 7 44 -74 67 -130 36z"/>
<path d="M1976 999 c-31 -24 -34 -64 -7 -79 53 -28 151 4 151 49 0 50 -94 69
-144 30z"/>
<path d="M1068 915 c-60 -33 -38 -95 34 -95 78 0 129 50 92 91 -21 23 -86 25
-126 4z"/>
<path d="M1685 878 c-52 -28 -60 -73 -15 -91 41 -18 94 -10 125 19 30 28 31
38 5 64 -22 22 -82 27 -115 8z"/>
<path d="M1410 768 c-39 -27 -47 -45 -27 -71 22 -30 86 -33 127 -5 39 27 47
45 27 71 -22 30 -86 33 -127 5z"/>
<path d="M1656 709 c-25 -14 -35 -24 -28 -31 12 -12 96 28 87 42 -8 13 -14 12
-59 -11z"/>
<path d="M1292 658 c2 -7 28 -26 58 -41 43 -22 65 -28 100 -24 59 5 168 53
153 68 -7 7 -30 2 -73 -15 -79 -32 -109 -32 -172 -1 -55 28 -71 31 -66 13z"/>
<path d="M1744 2205 c-44 -67 47 -189 96 -130 21 26 7 105 -25 132 -34 29 -51
29 -71 -2z"/>
<path d="M2102 1978 c-18 -18 -14 -79 8 -115 24 -40 67 -54 87 -28 45 63 -42
196 -95 143z"/>
<path d="M1984 1795 c-14 -22 -15 -32 -6 -64 14 -44 53 -84 79 -79 10 2 24 16
31 32 12 24 12 34 -3 72 -25 67 -71 84 -101 39z"/>
<path d="M1860 1630 c-25 -60 40 -157 88 -131 26 14 35 43 27 81 -17 77 -90
109 -115 50z"/>
<path d="M2222 1408 c-32 -32 2 -138 48 -153 30 -10 60 20 60 60 0 67 -72 129
-108 93z"/>
<path d="M2260 1181 c0 -6 16 -22 34 -36 42 -32 80 -31 84 3 4 24 -7 29 -25
11 -9 -9 -19 -6 -41 10 -32 22 -52 27 -52 12z"/>
</g>
</svg>
